<svg xmlns="http://www.w3.org/2000/svg" viewBox="0 0 24 24" fill="#F7DF1E">
  <rect width="24" height="24" rx="4" fill="#F7DF1E"/>
  <path d="M6.5 17.5l1.5-1c.5.5 1 1 2 1 .8 0 1.3-.4 1.3-1.9V9h2v6.7c0 3.1-1.8 4.5-4.4 4.5-2.4 0-3.8-1.2-4.4-2.7zm8.5 0l1.5-1c.6.9 1.4 1.5 2.8 1.5 1.2 0 2-.6 2-1.4 0-1-.8-1.3-2.1-1.9l-.7-.3c-2.2-.9-3.7-2.1-3.7-4.5 0-2.2 1.7-3.9 4.4-3.9 1.9 0 3.3.7 4.3 2.4l-1.5 1c-.5-.9-1.1-1.2-2-1.2-.9 0-1.5.6-1.5 1.2 0 .9.6 1.2 1.9 1.8l.7.3c2.6 1.1 4.1 2.2 4.1 4.7 0 2.7-2.1 4.1-5 4.1-2.8 0-4.6-1.3-5.5-3.1z" fill="#000"/>
</svg>
