<svg xmlns="http://www.w3.org/2000/svg" viewBox="0 0 24 24">
  <defs>
    <linearGradient id="pyBlue" x1="0%" y1="0%" x2="0%" y2="100%">
      <stop offset="0%" style="stop-color:#387EB8"/>
      <stop offset="100%" style="stop-color:#366994"/>
    </linearGradient>
    <linearGradient id="pyYellow" x1="0%" y1="0%" x2="0%" y2="100%">
      <stop offset="0%" style="stop-color:#FFE873"/>
      <stop offset="100%" style="stop-color:#FFD43B"/>
    </linearGradient>
  </defs>
  <path d="M12 2C8.5 2 8 2.5 8 4.5V7h4v.5H6.5C4.5 7.5 2 8.5 2 12s2.5 4.5 4.5 4.5H8v-2.5c0-2 1.5-3.5 3.5-3.5h5c1.5 0 2.5-1 2.5-2.5v-4c0-1.5-.5-2-4-2zm-1 1.5c.5 0 1 .5 1 1s-.5 1-1 1-1-.5-1-1 .5-1 1-1z" fill="url(#pyBlue)"/>
  <path d="M12 22c3.5 0 4-.5 4-2.5V17h-4v-.5h5.5c2 0 4.5-1 4.5-4.5s-2.5-4.5-4.5-4.5H16v2.5c0 2-1.5 3.5-3.5 3.5h-5c-1.5 0-2.5 1-2.5 2.5v4c0 1.5.5 2 4 2zm1-1.5c-.5 0-1-.5-1-1s.5-1 1-1 1 .5 1 1-.5 1-1 1z" fill="url(#pyYellow)"/>
</svg>
